PathFileType	4	(X/Y/Z)	C:/Users/opensim2020/Desktop/walking_exp_matlab/subject02_walking11_straight_03.trc	
DataRate	CameraRate	NumFrames	NumMarkers	Units	OrigDataRate	OrigDataStartFrame	OrigNumFrames	
100.00	100.00	4	42	mm	100.00	2442	250	
Frame#	Time	LFHD			RFHD			LBHD			RBHD			C7			T10			CLAV			STRN			RBAK			LSHO			LUPA			LELB			LFRM			LWRA			LWRB			LFIN			RSHO			RUPA			RELB			RFRM			RWRA			RWRB			RFIN			LASI			RASI			LPSI			RPSI			LTHI			LKNE			LTIB			LANK			LHEE			LTOE			RTHI			RKNE			RTIB			RANK			RHEE			RTOE			*39			*40			*41			
		X1	Y1	Z1	X2	Y2	Z2	X3	Y3	Z3	X4	Y4	Z4	X5	Y5	Z5	X6	Y6	Z6	X7	Y7	Z7	X8	Y8	Z8	X9	Y9	Z9	X10	Y10	Z10	X11	Y11	Z11	X12	Y12	Z12	X13	Y13	Z13	X14	Y14	Z14	X15	Y15	Z15	X16	Y16	Z16	X17	Y17	Z17	X18	Y18	Z18	X19	Y19	Z19	X20	Y20	Z20	X21	Y21	Z21	X22	Y22	Z22	X23	Y23	Z23	X24	Y24	Z24	X25	Y25	Z25	X26	Y26	Z26	X27	Y27	Z27	X28	Y28	Z28	X29	Y29	Z29	X30	Y30	Z30	X31	Y31	Z31	X32	Y32	Z32	X33	Y33	Z33	X34	Y34	Z34	X35	Y35	Z35	X36	Y36	Z36	X37	Y37	Z37	X38	Y38	Z38	X39	Y39	Z39	X40	Y40	Z40	X41	Y41	Z41	X42	Y42	Z42	

63	0.620	1446.95068	-454.43222	1739.72791	1590.50769	-450.20233	1723.08679	1439.73401	-560.74200	1633.81616	1581.18701	-568.85529	1612.85010	1521.91016	-593.89087	1511.40271	1536.00464	-660.78717	1242.16699	1496.41895	-458.06693	1441.37866	1507.17090	-413.95691	1264.68689	1599.37512	-650.49084	1347.18677	1335.79163	-546.23047	1481.18274	1262.30957	-605.49304	1288.90173	1256.28723	-642.12360	1154.26746	1236.61975	-673.09137	1028.27063	1243.79126	-651.54456	889.81818	1225.86694	-701.72540	908.29004	1215.84375	-702.59705	841.54913	1696.57837	-489.69662	1481.94470	1792.25842	-476.91330	1293.62769	1813.60242	-425.87515	1155.31213	1828.93042	-358.26935	1055.99353	1805.43774	-271.04279	954.70197	1840.29639	-311.14670	934.83344	1842.71484	-252.68137	892.62909	1386.75806	-438.75122	978.11621	1644.23254	-432.34543	957.60950	1472.34351	-646.60504	1017.64459	1586.71008	-647.11267	1017.22540	1307.90710	-443.13095	678.69025	1329.17444	-400.74265	482.66327	1317.61060	-381.80347	290.54837	1322.65015	-282.85956	85.24911	1376.73474	-297.33221	46.48792	1294.69470	-128.09055	99.16613	1702.19189	-559.06592	661.69092	1664.67871	-608.17950	455.91324	1672.20764	-696.33459	287.93250	1636.51636	-761.81830	103.96072	1582.12573	-807.91467	55.10952	1653.55237	-620.44464	32.87908	1536.41699	-569.33228	1777.49438	-3357.26318	2845.77930	1034.29456			 
64	0.630	1444.75830	-446.51724	1738.97192	1588.20007	-442.22137	1722.43689	1437.57031	-552.84668	1632.98389	1579.03149	-560.86499	1612.10449	1519.80176	-585.83673	1510.51404	1533.88269	-652.35999	1241.15015	1494.28931	-449.93942	1440.67871	1505.20361	-405.46161	1264.09998	1597.43970	-642.71350	1346.53882	1333.72998	-538.31317	1480.28442	1260.55127	-597.99127	1287.96375	1254.68347	-634.95941	1153.54431	1235.27258	-666.26105	1027.66846	1242.76099	-644.80432	889.07587	1224.69238	-695.11102	907.70905	1214.69568	-696.42151	840.78650	1694.54443	-481.82224	1481.37854	1789.63574	-468.78323	1292.73950	1810.83936	-417.17657	1154.53687	1825.79785	-349.08603	1055.45776	1802.24280	-261.24118	954.76910	1837.04907	-301.15573	934.69073	1839.35046	-242.46063	892.79639	1384.86218	-429.28604	977.54443	1642.41394	-423.80551	956.66479	1469.98462	-637.60162	1016.79803	1584.36475	-638.43988	1016.37866	1306.05725	-431.92767	678.65240	1327.78564	-390.21103	482.19565	1317.04846	-373.24414	289.70816	1323.22107	-276.45975	83.53235	1377.66516	-291.31430	45.14930	1295.37830	-121.62727	95.92876	1700.87427	-552.36047	661.31104	1663.94543	-602.64410	455.95099	1671.65210	-692.92133	288.96448	1636.73560	-760.78693	105.79272	1582.15698	-806.87787	56.92704	1653.71106	-620.30133	32.84678	1534.33850	-561.38214	1776.87000	-3357.51074	2845.87769	1034.29651			 
65	0.640	1442.39990	-438.43240	1738.22339	1585.78271	-434.22830	1721.80762	1435.29456	-544.91046	1632.13330	1576.80762	-552.77649	1611.36462	1517.63440	-577.79285	1509.65906	1531.62927	-643.80872	1240.08594	1492.08679	-441.72369	1440.03601	1503.11169	-396.93768	1263.60913	1595.29370	-634.43695	1345.58643	1331.57336	-530.33441	1479.44983	1258.37451	-590.96869	1287.38147	1253.04309	-627.40887	1152.78723	1233.77185	-659.48547	1027.23987	1241.29053	-637.95819	888.42206	1223.26929	-688.25323	907.04181	1213.48889	-690.06207	840.14423	1692.27014	-473.75897	1480.66382	1787.23987	-460.66727	1291.99365	1808.38757	-408.33887	1154.05579	1822.79858	-340.03644	1055.08350	1798.97876	-251.78278	954.82642	1833.71899	-291.56894	934.40894	1835.90576	-232.69409	892.84723	1382.49463	-419.79218	976.72925	1640.44019	-415.12411	955.70544	1467.49194	-628.42657	1015.89020	1581.83142	-629.49463	1015.46161	1303.23950	-421.45105	678.46106	1326.30383	-379.94376	481.59781	1316.51294	-365.22006	288.74014	1323.92444	-271.16672	81.48569	1378.64465	-286.87723	43.81268	1296.50500	-116.24678	92.26291	1699.59155	-545.46930	661.07373	1663.10706	-596.97949	455.82016	1671.12976	-689.38385	290.22299	1636.94287	-759.68524	107.82650	1582.46106	-806.79041	59.91170	1653.82263	-620.25165	32.79590	1531.94141	-553.46161	1776.06067	-3357.22827	2845.77832	1034.24805			 
66	0.650	1439.78320	-430.62967	1737.48047	1583.30444	-426.18277	1721.16443	1432.92944	-536.90594	1631.37158	1574.47107	-544.67249	1610.67017	1515.30933	-569.58032	1508.78186	1529.24268	-635.08197	1238.99829	1489.75183	-433.51620	1439.42139	1500.88171	-388.29041	1263.09827	1592.91016	-625.76520	1344.38782	1329.26526	-522.25262	1478.61902	1256.47803	-582.57208	1286.37341	1251.18665	-619.88214	1152.06970	1231.73938	-652.27362	1026.23730	1240.42737	-630.97961	887.68378	1221.78491	-681.12299	906.36572	1212.43298	-682.64447	839.70020	1690.05273	-465.78113	1480.02271	1784.56641	-452.31180	1291.47632	1805.55811	-399.81949	1153.41882	1819.68347	-331.13510	1054.55042	1795.56799	-242.47676	954.72809	1830.26221	-282.25598	934.06476	1832.23267	-223.19450	892.69489	1380.04468	-409.89648	976.21356	1638.26001	-406.14529	954.73926	1464.88501	-619.05377	1015.01910	1579.10645	-620.37598	1014.58685	1301.31482	-409.98248	678.32330	1324.97339	-370.04575	480.82181	1316.02637	-357.83710	287.77304	1324.72388	-266.81528	79.25560	1379.25830	-282.70407	41.11820	1297.83044	-111.82299	88.02516	1698.06531	-538.30579	660.78729	1661.91003	-591.02380	455.61508	1670.59448	-685.88702	291.62552	1636.83765	-758.67822	109.88105	1582.58838	-806.03558	62.77379	1654.11133	-620.09094	32.88572	1529.52478	-545.50079	1775.34106	-3360.43530	2845.24561	1034.15967			 
